<svg width="809" height="172" viewBox="0 0 809 172" fill="none" xmlns="http://www.w3.org/2000/svg">
<path fill-rule="evenodd" clip-rule="evenodd" d="M285.958 22.6268C286.114 22.5226 287.578 22.7505 289.041 22.9785C290.666 23.1994 291.819 23.7329 291.675 24.1286C291.366 24.4342 288.978 25.2202 286.259 25.826C281.14 26.9263 281.301 26.9192 289.877 27.3224C294.734 27.5964 298.95 27.9959 299.446 28.2662C299.942 28.5365 294.31 28.9778 286.896 29.3025C279.16 29.6413 273.663 29.4927 273.637 28.9097C273.612 28.3268 274.884 27.8817 276.335 27.8181C278.752 27.7123 278.905 27.5109 276.78 26.9225C274.812 26.23 275.435 25.7159 279.901 24.4496C282.925 23.441 285.635 22.6409 285.796 22.6339L285.958 22.6268ZM237.331 25.8272C238.137 25.7919 240.406 25.9845 242.196 26.2955C244.639 26.7726 243.523 27.1135 237.42 27.8675C232.92 28.3566 228.564 28.45 227.746 28.1938C226.762 27.8475 228.187 27.2011 230.914 26.7896C233.475 26.288 236.364 25.8695 237.331 25.8272ZM320.016 22.3034C333.066 21.6345 348.386 21.1583 364.719 21.7085L356.678 22.45C352.169 22.7448 345.888 23.1172 342.499 23.1683C339.272 23.2123 336.222 23.6379 335.764 24.242C335.306 24.8462 337.096 25.1572 339.836 25.0372C342.415 24.9242 344.684 25.1169 344.705 25.6027C344.722 25.9913 346.508 26.2052 348.603 26.1134C350.698 26.0216 353.103 25.6243 353.892 25.2004C354.515 24.6863 356.14 24.9072 357.298 25.5379C359.109 26.3347 360.237 26.2853 362.934 25.1937C365.471 24.1092 366.921 24.0457 368.079 24.6764C369.076 25.3141 375.379 25.4275 382.954 25.0958C392.624 24.6723 396.314 24.1213 396.28 23.344C396.243 22.502 396.729 22.5456 397.739 23.4748C398.914 24.4942 399.885 24.549 401.463 23.7011C402.722 22.9645 411.565 22.0905 423.653 21.5612C434.77 20.977 449.593 20.2305 456.676 19.7256C463.763 19.3179 474.078 18.8661 479.562 18.7233C485.691 18.5522 489.419 18.8757 488.961 19.4798C488.503 20.0839 489.326 20.4373 490.616 20.3808C491.905 20.3244 492.694 19.9004 492.185 19.3387C491.676 18.7769 493.915 18.2894 497.304 18.2384C502.627 18.1026 502.953 18.1856 499.437 19.021C496.876 19.5226 501.728 19.6995 511.886 19.352C522.523 18.8861 528.151 18.3476 527.642 17.7858C527.133 17.2241 525.674 17.0933 524.398 17.4412C523.121 17.7891 521.666 17.7555 521.327 17.381C520.983 16.9093 534.992 16.0038 552.56 15.2344C570.128 14.4651 585.129 14.1001 585.952 14.4535C586.614 14.8139 585.032 15.5645 582.47 16.0661C578.309 16.9297 579.285 17.0817 588.171 17.1793C593.986 17.2167 611.235 16.5586 626.377 15.7008C653.279 14.2306 654.251 14.2854 654.331 16.1314C654.404 17.7831 653.925 17.9014 651.151 17.2442C649.352 16.7388 644.984 16.5408 641.438 16.6961C637.892 16.8514 634.686 17.3812 634.228 17.9853C633.77 18.5894 635.076 18.9216 637.01 18.8369C639.101 18.648 651.197 18.3129 664.104 18.0397C677.006 17.6694 692.186 17.686 698.013 18.0149C703.841 18.3437 712.583 18.837 717.443 19.2082C722.304 19.5794 729.574 19.6504 733.603 19.4739C738.111 19.1792 742.493 19.6687 744.957 20.6316C747.256 21.5043 750.7 22.7163 752.825 23.3047C754.785 23.8029 758.034 24.2447 759.972 24.2572C763.034 24.1231 762.564 24.4357 752.516 27.3094L760.889 26.748C765.397 26.4532 769.757 26.457 770.58 26.8103C771.242 27.1707 772.675 26.7186 773.761 25.6976C774.847 24.6766 775.644 24.447 775.839 25.2172C775.869 25.8973 778.308 26.2772 781.858 26.2191C785.247 26.168 790.095 26.2477 792.69 26.5234C795.282 26.702 797.738 27.4705 798.09 28.1365C798.438 28.7054 796.224 29.7758 793.348 30.4858C790.63 31.0916 779.382 32.3629 768.439 33.2315C757.662 34.1902 748.819 35.0642 748.832 35.3557C748.844 35.6472 751.928 35.9988 755.652 36.2251C759.537 36.4444 766.819 36.8069 771.841 37.171C777.024 37.5281 782.513 37.4824 783.95 37.1274C786.504 36.4315 786.495 36.2372 784.37 35.6489C783.059 35.2195 782.72 34.845 783.526 34.8097C784.336 34.8716 786.792 35.6402 788.769 36.527C790.911 37.504 792.578 38.6965 792.603 39.2795C792.629 39.8624 794.575 40.0692 796.989 39.8662C799.559 39.5589 801.667 39.7586 801.854 40.3345C802.201 40.9034 798.991 41.336 794.313 41.4435C787.208 41.4626 786.25 41.6993 786.326 43.4481C786.373 44.5169 787.709 45.5292 789.168 45.66C790.793 45.8808 794.839 46.093 798.075 46.2433C802.122 46.4555 804.247 47.0439 804.289 48.0155C804.323 48.7927 803.395 49.7095 802.271 49.8561C800.833 50.2111 800.85 50.5997 802.347 51.6049C804.167 52.596 803.705 53.103 800.04 54.2369C797.648 54.9257 790.773 56.4923 784.526 57.642C778.278 58.7917 772.336 59.5387 771.196 59.2966C770.216 59.0475 768.931 59.2011 768.473 59.8052C768.015 60.4094 770.135 60.9006 772.888 61.072C775.802 61.2365 780.162 61.2402 782.58 61.1343C785.158 61.0214 787.109 61.3253 787.135 61.9083C787.16 62.4912 785.557 62.7561 783.453 62.6536C781.511 62.544 778.457 62.8724 776.701 63.3387C774.152 64.1317 774.967 64.2907 779.967 64.1691C783.513 64.0138 788.217 64.4892 794.596 66.3514L789.282 66.6815C786.542 66.8015 783.819 67.3101 783.361 67.9143C782.903 68.5184 780.664 69.0058 778.085 69.1188C775.667 69.2247 772.622 69.7474 771.354 70.2897C769.289 71.0615 769.462 71.3459 772.241 72.1004C774.858 72.8619 775.032 73.1463 773.115 73.6196C771.834 73.8704 767.024 74.6651 754.669 76.4717L761.447 76.3695C765.324 76.3944 768.407 76.7461 768.433 77.3291C768.458 77.912 765.417 78.5319 761.553 78.7985C757.846 78.9608 753.495 79.1514 751.883 79.222C750.428 79.1884 748.851 80.0362 748.414 81.1261C747.842 82.8061 748.334 82.9792 751.213 82.3664C753.292 81.886 755.196 81.1212 755.658 80.6142C756.116 80.0101 757.728 79.9395 760.014 80.5208C762.135 81.012 764.565 81.1976 765.358 80.8708C766.151 80.544 766.966 80.7031 766.991 81.286C767.017 81.869 766.067 82.3 764.938 82.3494C763.976 82.4889 760.142 83.4355 750.277 86.7879L756.244 86.6239C759.629 86.4757 762.386 86.7443 762.411 87.3273C762.437 87.9102 764.066 88.2283 766.004 88.2407C769.55 88.0855 769.554 88.1826 766.526 89.094C763.659 89.9983 763.824 90.0884 767.692 89.919C770.275 89.9033 772.226 90.2072 772.252 90.7901C772.277 91.3731 770.691 92.0266 768.609 92.4099C766.687 92.786 762.022 93.185 758.154 93.3544C754.447 93.5168 751.079 94.0536 750.621 94.6578C750.163 95.2619 753.243 95.5164 758.243 95.3948C762.917 95.1901 768.253 95.3458 770.047 95.754C772.982 96.4042 772.986 96.5013 769.284 96.7608C766.221 96.8949 765.751 97.2076 767.71 97.7058C769.021 98.1352 770.213 99.5431 770.107 100.813C770.171 102.271 768.763 103.306 766.205 103.904C764.123 104.288 759.945 104.763 757.048 104.987C752.862 105.268 752.069 105.594 752.778 107.023C753.643 108.348 752.846 108.578 749.292 108.539C745.415 108.514 745.258 108.618 751.289 109.912L748.092 110.636C746.331 111.005 743.477 112.201 741.586 113.257C739.223 114.626 734.897 115.399 726.364 115.968C719.764 116.452 714.297 116.983 713.988 117.289C713.835 117.49 714.187 118.156 714.857 118.711C715.858 119.446 721.673 119.483 733.108 118.788C742.452 118.281 752.601 117.739 755.506 117.709C758.73 117.568 760.524 117.976 759.574 118.407C758.789 118.928 752.733 120.751 746.185 122.401C739.64 124.147 729.877 126.133 724.584 126.948C719.291 127.764 697.236 129.314 675.486 130.461C648.584 131.932 635.873 132.975 635.58 133.669C635.444 134.259 633.854 134.816 632.081 134.893C630.308 134.971 628.875 135.423 628.9 136.006C628.926 136.589 636.518 136.646 648.283 136.131C660.049 135.615 667.641 135.672 667.666 136.255C667.692 136.838 666.424 137.38 664.82 137.645C663.378 137.903 668.235 138.177 675.831 138.331C688.598 138.551 689.085 138.627 683.152 139.568C679.627 140.209 669.8 140.737 661.411 140.91C653.017 140.985 641.718 141.091 636.391 141.129C631.068 141.265 628.489 141.378 630.754 141.474C633.023 141.666 635.467 142.143 636.455 142.587C637.447 143.127 634.881 143.532 629.236 143.682C624.401 143.893 617.131 143.822 613.085 143.61C609.035 143.301 606.435 142.928 607.397 142.788C608.356 142.552 604.31 142.34 598.49 142.205C592.671 142.071 587.357 142.401 586.407 142.832C585.457 143.263 588.222 143.726 592.426 143.834C596.79 143.934 599.878 144.383 599.577 144.883C599.271 145.286 592.841 145.957 585.428 146.282C578.179 146.696 570.591 146.737 568.802 146.426C566.52 145.942 567.957 145.587 573.921 145.325C578.59 145.024 582.441 144.465 582.416 143.883C582.39 143.3 581.232 142.669 579.926 142.337C578.454 141.914 576.529 142.193 575.43 142.923C574.018 143.861 572.89 143.91 570.595 143.135C568.462 142.352 567.011 142.416 564.636 143.493C562.732 144.258 561.447 144.411 561.421 143.829C561.396 143.246 554.932 143.139 544.782 143.681C535.757 144.076 512.391 145.197 492.885 145.954C473.384 146.808 455.494 147.591 452.911 147.607C450.493 147.713 444.386 148.37 439.254 149.179C434.279 149.883 427.832 150.166 425.236 149.89C422.153 149.538 418.615 149.888 415.587 150.799C413.038 151.592 409.518 152.331 407.911 152.498C406.46 152.562 405.476 152.215 405.934 151.611C406.392 151.007 400.895 150.859 390.898 151.199C380.745 151.644 376.38 151.543 378.45 150.868C381.16 150.068 380.829 149.888 376.316 150.085C373.572 150.108 371.172 150.603 371.197 151.186C371.223 151.769 368.822 152.263 365.921 152.39C362.053 152.56 361.396 152.296 363.139 151.539C364.882 150.781 364.224 150.518 359.868 150.611C356.802 150.648 351.636 150.68 348.565 150.619C345.494 150.559 340.634 150.188 338.03 149.718C333.635 148.937 333.313 148.951 335.629 150.212C337.945 151.474 337.631 151.682 332.788 151.7C330.039 151.625 327.605 151.343 327.588 150.954C327.566 150.468 325.632 150.553 323.066 150.957C320.661 151.355 315.818 151.372 312.247 150.944C308.675 150.517 286.574 150.998 262.233 151.967C238.375 152.914 218.072 153.901 217.109 154.04C216.146 154.18 213.088 154.411 210.183 154.441C206.955 154.485 205.165 154.174 205.615 153.375C205.746 152.688 207.175 152.139 208.796 152.263C210.25 152.296 211.366 151.955 211.34 151.372C211.315 150.789 208.074 150.542 204.045 150.718C199.694 150.909 197.098 150.633 197.556 150.029C198.014 149.425 196.869 149.086 195.096 149.163C193.323 149.241 191.533 148.93 191.024 148.368C190.515 147.806 191.465 147.376 192.915 147.312C194.527 147.241 195.486 147.005 194.994 146.832C194.497 146.561 186.901 146.407 178.024 146.504C169.147 146.601 155.74 146.506 134.414 146.272L144.886 145.716C150.684 145.365 154.696 144.8 154.034 144.44C153.207 143.989 145.785 144.119 137.413 144.681C128.552 145.166 121.932 145.164 121.423 144.602C120.914 144.04 122.177 143.401 124.107 143.219C126.194 142.933 134.571 142.469 142.951 142.102C155.043 141.67 158.254 141.237 158.848 140.043C159.284 138.953 159.768 138.932 160.608 139.674C161.117 140.236 166.47 140.78 172.446 140.81C181.492 140.901 183.418 140.622 183.367 139.456C183.333 138.679 184.911 137.831 186.84 137.649C188.936 137.557 185.852 137.205 180.029 136.974C174.205 136.742 162.58 136.764 154.186 136.84C145.797 137.013 134.811 136.91 129.955 136.636C125.103 136.459 113.002 136.697 103.336 137.217C93.6662 137.641 83.856 138.557 81.6167 139.045C78.2619 139.873 77.7741 139.797 78.6816 138.394C79.4406 137.29 79.0927 136.722 77.8034 136.778C76.8363 136.82 79.364 135.542 83.8215 134.081C88.1135 132.53 92.7407 131.257 93.7077 131.214C94.8359 131.165 96.1635 131.983 96.6939 133.03C97.4109 134.654 99.0353 134.875 105.97 134.668C110.644 134.464 122.893 133.927 133.047 133.483C143.2 133.038 151.891 132.365 152.2 132.06C152.51 131.754 150.402 131.554 147.335 131.591C144.273 131.725 141.202 131.665 140.231 131.61C139.256 131.458 137.64 131.432 136.507 131.384C135.54 131.426 134.531 130.497 134.484 129.428C134.437 128.36 135.353 127.151 136.303 126.72C137.737 126.268 137.232 125.804 134.628 125.334C132.676 125.03 130.093 125.046 128.982 125.484C127.714 126.026 128.054 126.4 130.331 126.787C133.423 127.333 133.427 127.43 129.882 127.586C127.952 127.768 125.988 127.172 125.471 126.416C124.953 125.66 123.795 125.029 122.989 125.065C122.022 125.107 121.73 125.801 122.247 126.557C122.947 127.792 120.216 128.106 103.776 128.826C90.3992 129.412 84.0965 129.299 83.0954 128.564C82.2513 127.725 82.8917 127.599 85.4917 127.972C87.604 128.269 89.2157 128.199 89.1986 127.81C89.1774 127.324 93.6816 126.932 99.3269 126.782C106.91 126.645 109.956 126.122 112.157 124.76C114.829 123.086 114.99 123.079 115.071 124.925C115.151 126.771 115.313 126.764 117.017 125.131C118.103 124.11 119.375 123.665 120.198 124.019C120.86 124.379 121.331 124.066 121.305 123.484C121.263 122.512 117.064 122.501 104.34 123.253C94.996 123.76 87.438 124.48 87.4593 124.966C87.4763 125.354 86.3609 125.695 85.0715 125.752C83.7821 125.808 82.3614 126.552 81.9119 127.35C81.4624 128.149 79.7194 128.906 77.9465 128.984C76.1736 129.062 74.9055 129.604 75.0922 130.18C75.4443 130.846 72.73 131.549 68.7092 131.92C63.7257 132.43 61.7789 132.223 61.0874 131.183C60.5698 130.427 58.4448 129.838 56.1884 129.937C53.932 130.036 52.1421 129.725 52.1166 129.142C52.0911 128.559 55.9337 127.807 60.4337 127.317C65.0949 126.821 70.0614 125.922 71.3252 125.283C73.064 124.428 72.0928 124.373 67.597 124.959C62.4608 125.671 61.8119 125.602 62.7193 124.2C63.788 122.79 63.139 122.721 59.4534 123.369C56.247 123.899 55.1103 123.754 55.0635 122.685C55.0294 121.908 56.289 121.172 57.7395 121.108C60.1571 121.002 60.3098 120.801 58.1848 120.212C56.8741 119.783 54.2911 119.799 52.531 120.168C50.3963 120.586 49.7431 120.42 50.5714 119.67C51.1821 118.864 49.7018 118.248 45.9778 118.021C42.7331 117.677 39.7938 116.929 39.4459 116.36C38.9326 115.702 39.0725 115.209 39.7172 115.18C40.5273 115.242 41.9778 115.179 42.9406 115.039C44.0688 114.99 44.5268 114.386 43.6954 113.838C43.0252 113.283 41.0741 112.979 39.1486 113.258C37.223 113.537 35.764 113.407 35.8996 112.817C36.0352 112.227 36.7943 111.123 37.5661 110.31C38.8044 109.088 38.4778 109.005 35.9246 109.701C34.173 110.264 30.9709 110.891 28.7273 111.281C25.1985 111.825 25.1943 111.728 29.4906 110.274C33.1464 108.946 33.6172 108.633 27.8108 108.79L30.9704 107.192C33.973 105.698 33.973 105.698 29.6172 105.791C25.9102 105.953 25.414 105.683 26.3002 103.795C27.0592 102.691 28.4587 101.461 29.4172 101.224C30.5411 101.078 31.4826 100.453 31.4571 99.8697C31.4316 99.2867 28.8358 99.011 25.7736 99.1451C20.6161 99.371 20.2853 99.1908 21.6592 97.3784C22.8805 95.7674 22.7023 95.3858 20.7683 95.4705C19.4789 95.527 18.3337 95.1878 18.3081 94.6048C18.2826 94.0219 16.6539 93.7038 14.5587 93.7956C11.6533 93.8255 11.9629 93.5199 17.0395 91.448C20.2119 90.1409 22.413 88.779 21.747 88.3215C20.9241 87.9681 22.0396 87.6272 23.9736 87.5425C26.0688 87.4508 27.5449 87.9702 27.2523 88.6644C27.1167 89.2544 28.4316 89.7809 30.2045 89.7033C32.4609 89.6045 33.3981 88.882 33.33 87.3275C33.279 86.1616 32.4391 85.4196 31.6417 85.6492C30.6875 85.983 29.0587 85.665 27.905 85.1314C26.255 84.3276 25.6103 84.3558 24.6859 85.3698C24.071 86.0781 22.3108 86.4472 20.6864 86.2263C18.5741 85.9294 17.9507 86.4435 18.0231 88.0952C18.2566 89.7398 17.7858 90.0525 16.1358 89.2486C14.9821 88.7151 11.2581 88.4888 7.88207 88.8313C3.7044 89.3063 2.07993 89.0854 2.36823 88.294C2.66078 87.5998 4.73473 87.0223 6.83846 87.1248C10.0746 87.2751 10.8592 86.754 11.7199 84.2827C12.7289 81.5129 13.2082 81.3945 15.3587 82.5658C16.6821 83.2866 18.9683 83.8679 20.2577 83.8115C21.547 83.755 25.2242 82.9126 28.2524 82.0012C31.2806 81.0898 33.8168 80.0053 33.7997 79.6166C33.7785 79.1309 33.2694 78.5691 32.6077 78.2087C31.9418 77.7511 30.3428 78.1132 29.0832 78.8497C27.3486 79.8018 26.704 79.8301 26.1822 78.9768C25.8258 78.2136 24.3667 78.0829 22.7678 78.4449C21.1688 78.807 19.0524 78.4129 17.5593 77.5049C15.7311 76.3195 15.5486 75.8407 16.9864 75.4857C18.1103 75.3391 19.0518 74.7139 19.0263 74.1309C19.0008 73.5479 16.3752 72.5921 13.279 71.949C10.1827 71.3058 7.87948 70.3359 8.33746 69.7318C8.79545 69.1276 10.229 68.6755 11.5183 68.619C12.8077 68.5625 13.9061 67.833 13.8721 67.0557C13.838 66.2785 15.2418 65.1462 16.9891 64.4856C18.7365 63.825 20.4923 63.3587 20.9758 63.3376C21.4593 63.3164 21.8115 63.9824 21.8455 64.7597C21.8795 65.5369 20.6412 66.7593 19.0508 67.3157C16.8327 68.2889 17.1593 68.372 21.1801 68.0012C23.9115 67.6869 25.9811 67.0122 25.9514 66.3321C25.9216 65.6519 26.8418 64.5408 27.9402 63.8113C29.0386 63.0818 29.8104 62.2692 29.7977 61.9778C29.7849 61.6863 27.8466 61.6738 25.7599 61.9599C22.5407 62.1982 21.8833 61.935 21.9764 60.3734C22.2519 59.2905 23.503 58.3596 24.7923 58.3032C26.086 58.3439 29.2668 57.2311 31.9557 55.9452C34.6403 54.5622 38.4701 53.5183 40.7264 53.4195C42.9871 53.4179 49.086 52.5667 54.3664 51.4593C59.651 50.4491 65.4063 49.1263 67.1537 48.4657C69.3845 47.7839 70.8351 47.7204 71.993 48.3511C72.8244 48.8988 76.7138 49.2152 80.4207 49.0528C84.45 48.8764 87.0117 48.3748 86.5027 47.813C85.9936 47.2513 86.1378 46.8556 86.7825 46.8273C87.5883 46.792 90.642 46.4636 99.307 45.208L94.5399 46.9743C90.2479 48.5251 90.091 48.6293 93.7766 47.9812C96.0245 47.6881 98.7516 47.2766 99.7187 47.2342C100.847 47.1848 101.784 46.4624 101.75 45.6851C101.712 44.8107 99.9048 44.1111 97.1564 44.0367C94.7304 43.9483 90.7096 44.3191 87.991 44.9248C85.2723 45.5306 75.7845 46.4329 66.7675 47.0224C57.7462 47.5149 49.8403 47.6664 49.0132 47.2159C48.3515 46.8555 51.8845 46.4087 56.8808 46.1899C62.0382 45.9641 66.5383 45.475 66.8436 45.0722C67.1446 44.5723 71.3223 44.0973 76.1617 43.9827C80.8356 43.778 85.3357 43.2889 86.2814 42.7608C87.0702 42.3369 97.9958 41.0796 110.38 39.9532C122.769 38.9239 134.357 38.0271 136.129 37.9494C137.907 37.9689 146.279 37.4076 154.643 36.6519C163.007 35.8963 173.945 34.9305 178.772 34.5244C183.598 34.1184 195.495 32.9159 205.305 31.9996C215.111 30.9861 227.339 29.9639 232.662 29.8281C241.208 29.5512 241.857 29.6201 237.539 30.5879C234.825 31.2909 226.147 32.255 218.254 32.698C210.365 33.2382 201.034 34.0362 197.667 34.573C194.456 35.0057 192.068 35.7917 192.577 36.3534C193.086 36.9152 201.48 36.8397 213.886 36.199C225.321 35.5036 234.813 34.6985 235.279 34.2887C235.746 33.8789 242.18 33.3051 249.751 32.8762C257.326 32.5444 268.132 32.2658 273.947 32.3032C279.758 32.2434 290.408 32.0691 297.661 31.7514C305.075 31.4267 313.765 30.7541 316.976 30.3215C320.348 29.8818 323.388 29.2619 323.702 29.0534C324.016 28.845 322.557 28.7142 320.458 28.7088C318.358 28.7034 315.453 28.7333 314.159 28.6926C312.861 28.5548 310.44 28.5635 308.824 28.5369C306.885 28.5244 306.376 27.9627 306.97 26.7685C307.716 25.373 307.224 25.1999 305.316 25.8675C303.721 26.3267 301.609 26.0299 299.632 25.143C296.497 23.6254 297.46 23.4859 320.016 22.3034ZM258.644 25.7699C264.446 25.5158 265.587 25.7579 263.195 26.4467C261.443 27.0101 258.076 27.547 255.497 27.6599C253.084 27.8629 251.132 27.559 251.107 26.9761C251.081 26.3931 254.449 25.8562 258.644 25.7699ZM260.383 28.6141C269.574 28.3089 269.735 28.3018 263.327 29.4586C259.798 30.0025 255.624 30.5747 254.013 30.6453C252.566 30.8059 251.26 30.4738 251.235 29.8908C251.209 29.3079 255.226 28.8399 260.383 28.6141ZM99.7582 147.693C108.945 147.29 109.594 147.359 104.632 148.355C101.425 148.885 96.9124 149.083 94.1512 148.717C90.2534 148.206 91.2161 148.067 99.7582 147.693ZM681.336 134.975C688.427 134.665 691.659 134.718 688.606 135.046C685.552 135.375 679.75 135.629 675.712 135.611C671.674 135.593 674.244 135.286 681.336 134.975ZM200.339 158.279C211.469 157.986 220.838 158.063 221.334 158.333C221.826 158.506 211.358 159.159 197.981 159.745C182.182 160.34 174.913 160.269 176.987 159.691C178.738 159.128 189.206 158.474 200.339 158.279ZM240.606 155.931C244.152 155.776 247.075 156.135 247.096 156.621C247.121 157.204 244.237 157.719 240.692 157.875C237.146 158.03 234.228 157.768 234.202 157.185C234.181 156.699 237.061 156.087 240.606 155.931ZM257.254 156.273C261.444 156.09 265.168 156.316 265.673 156.78C266.182 157.342 264.905 157.69 262.971 157.775C260.872 157.77 257.148 157.543 254.391 157.275C250.01 156.785 250.328 156.674 257.254 156.273Z" fill="#DA0037"/>
<path d="M79.61 114H55.31L31.1 53.7H51.53L67.1 96.9H68.27L83.48 53.7H103.82L79.61 114ZM120.298 114.9C110.038 114.9 104.278 110.22 104.278 102.48C104.278 96.09 108.688 91.5 118.948 90.51L137.398 88.71V87.81C137.398 83.22 135.418 82.5 129.388 82.5C123.808 82.5 122.098 83.58 122.098 87.36V87.72H105.178V87.54C105.178 75.48 115.258 67.74 130.648 67.74C146.488 67.74 154.138 75.48 154.138 88.17V114H138.298V104.46H137.398C135.688 110.85 130.108 114.9 120.298 114.9ZM121.288 101.4C121.288 102.84 122.728 103.11 125.338 103.11C133.528 103.11 136.858 102.12 137.308 98.07L123.448 99.69C121.918 99.87 121.288 100.41 121.288 101.4ZM176.073 114H159.153V53.7H176.073V114ZM206.767 114.9C191.377 114.9 180.577 108.33 180.577 91.32C180.577 76.56 191.287 67.74 206.407 67.74C222.067 67.74 232.057 75.57 232.057 90.15C232.057 91.68 231.967 92.85 231.787 94.47H196.237C196.507 99.96 198.937 101.49 206.137 101.49C212.977 101.49 214.777 100.32 214.777 97.62V96.63H231.697V97.71C231.697 107.79 222.067 114.9 206.767 114.9ZM206.047 80.7C199.837 80.7 197.227 82.05 196.507 85.92H215.677C215.047 82.05 212.347 80.7 206.047 80.7ZM253.505 114H236.585V68.64H252.425V82.41H253.325C254.315 74.85 259.265 67.74 271.415 67.74C283.655 67.74 289.415 75.12 289.415 84.93V114H272.495V91.14C272.495 84.84 270.155 82.86 262.775 82.86C255.305 82.86 253.505 84.75 253.505 90.6V114ZM328.347 114H316.467C305.127 114 298.377 108.51 298.377 96.72V82.5H291.717V68.64H298.377V60.81H315.297V68.64H328.347V82.5H315.297V94.29C315.297 97.89 316.377 98.79 320.247 98.79H328.347V114ZM349.306 64.5H332.386V53.7H349.306V64.5ZM349.306 114H332.386V68.64H349.306V114ZM371.63 114H354.71V68.64H370.55V82.41H371.45C372.44 74.85 377.39 67.74 389.54 67.74C401.78 67.74 407.54 75.12 407.54 84.93V114H390.62V91.14C390.62 84.84 388.28 82.86 380.9 82.86C373.43 82.86 371.63 84.75 371.63 90.6V114ZM442.03 114H425.11V53.7H448.06L459.13 78.72L465.07 94.29H466.24L471.91 78.72L482.44 53.7H505.39V114H488.47V89.07L489.1 78.99H487.93L484.51 89.07L475.51 110.4H454.99L445.99 89.07L442.57 78.99H441.4L442.03 89.07V114ZM535.914 114.9C520.164 114.9 509.454 105.99 509.454 91.32C509.454 76.56 520.164 67.74 535.914 67.74C551.664 67.74 562.374 76.56 562.374 91.32C562.374 105.99 551.664 114.9 535.914 114.9ZM535.914 99.96C543.564 99.96 545.634 97.89 545.634 91.32C545.634 84.75 543.564 82.59 535.914 82.59C528.264 82.59 526.194 84.75 526.194 91.32C526.194 97.89 528.264 99.96 535.914 99.96ZM583.358 114H566.438V68.64H582.278V80.52H583.178C584.438 73.05 589.118 67.74 598.118 67.74C608.108 67.74 612.068 74.31 612.068 83.4V92.4H595.148V87.09C595.148 83.31 593.708 81.96 589.298 81.96C584.708 81.96 583.358 83.31 583.358 86.91V114ZM640.947 114.9C625.557 114.9 614.757 108.33 614.757 91.32C614.757 76.56 625.467 67.74 640.587 67.74C656.247 67.74 666.237 75.57 666.237 90.15C666.237 91.68 666.147 92.85 665.967 94.47H630.417C630.687 99.96 633.117 101.49 640.317 101.49C647.157 101.49 648.957 100.32 648.957 97.62V96.63H665.877V97.71C665.877 107.79 656.247 114.9 640.947 114.9ZM640.227 80.7C634.017 80.7 631.407 82.05 630.687 85.92H649.857C649.227 82.05 646.527 80.7 640.227 80.7ZM685.434 114.9C675.174 114.9 669.414 110.22 669.414 102.48C669.414 96.09 673.824 91.5 684.084 90.51L702.534 88.71V87.81C702.534 83.22 700.554 82.5 694.524 82.5C688.944 82.5 687.234 83.58 687.234 87.36V87.72H670.314V87.54C670.314 75.48 680.394 67.74 695.784 67.74C711.624 67.74 719.274 75.48 719.274 88.17V114H703.434V104.46H702.534C700.824 110.85 695.244 114.9 685.434 114.9ZM686.424 101.4C686.424 102.84 687.864 103.11 690.474 103.11C698.664 103.11 701.994 102.12 702.444 98.07L688.584 99.69C687.054 99.87 686.424 100.41 686.424 101.4ZM742.92 114.9C730.23 114.9 724.29 107.52 724.29 97.71V68.64H741.21V91.5C741.21 97.8 743.64 99.78 751.38 99.78C759.21 99.78 761.1 97.89 761.1 92.04V68.64H778.02V114H762.18V100.23H761.28C760.29 107.79 755.25 114.9 742.92 114.9Z" fill="#EDEDED"/>
</svg>
